<!DOCTYPE svg PUBLIC "-//W3C//DTD SVG 1.1//EN" "http://www.w3.org/Graphics/SVG/1.1/DTD/svg11.dtd">
<!-- Uploaded to: SVG Repo, www.svgrepo.com, Transformed by: SVG Repo Mixer Tools -->
<svg fill="#000000" version="1.1" id="Layer_1" xmlns="http://www.w3.org/2000/svg" xmlns:xlink="http://www.w3.org/1999/xlink" viewBox="0 0 512 512" xml:space="preserve" width="800px" height="800px" stroke="#000000" stroke-width="7.168000000000001">
<g id="SVGRepo_bgCarrier" stroke-width="0"/>
<g id="SVGRepo_tracerCarrier" stroke-linecap="round" stroke-linejoin="round"/>
<g id="SVGRepo_iconCarrier"> <g> <g> <g> <path d="M102.687,231.818h46.627V216.61h-46.628c-28.625,0-51.915-23.289-51.915-51.915c0-28.625,23.289-51.915,51.915-51.915 h19.458v-7.604c0-34.844,28.348-63.193,63.193-63.193c10.168,0,19.895,2.358,28.911,7.008l5.384,2.776l3.909-4.626 c17.151-20.294,42.207-31.934,68.741-31.934c49.609,0,89.968,40.36,89.968,89.969v7.604h19.458 c28.625,0,51.915,23.289,51.915,51.915c0,28.625-23.289,51.915-51.915,51.915H169.592v15.208h232.117 c37.011,0,67.123-30.112,67.123-67.123c0-37.012-30.112-67.123-67.123-67.123h-4.522C393.28,43.112,347.722,0,292.283,0 c-29.058,0-56.599,11.938-76.445,32.947c-9.648-4.098-19.881-6.171-30.5-6.171c-40.665,0-74.199,31.12-78.035,70.797h-4.616 c-37.011,0-67.123,30.111-67.123,67.123C35.564,201.707,65.675,231.818,102.687,231.818z"/> <path d="M367.043,105.177c0-41.224-33.538-74.761-74.76-74.761v15.208c32.837,0,59.552,26.715,59.552,59.553H367.043z"/> <path d="M438.416,164.696c0-20.24-16.467-36.707-36.707-36.707v15.208c11.854,0,21.499,9.645,21.499,21.499H438.416z"/> <path d="M401.86,306.182c0-25.593-20.821-46.414-46.414-46.414s-46.414,20.822-46.414,46.414h15.208 c0-17.207,13.998-31.206,31.206-31.206c17.207,0,31.206,13.999,31.206,31.206c0,17.206-13.998,31.206-31.206,31.206H17.154 v15.208h338.292C381.04,352.595,401.86,331.774,401.86,306.182z"/> <path d="M448.433,366.038c-25.593,0-46.414,20.821-46.414,46.414h15.208c0-17.207,13.998-31.206,31.206-31.206 c17.207,0,31.206,13.998,31.206,31.206c0,17.207-13.998,31.206-31.206,31.206H70.289v15.208h378.144 c25.593,0,46.414-20.821,46.414-46.414C494.846,386.859,474.025,366.038,448.433,366.038z"/> <rect x="110.136" y="496.792" width="258.981" height="15.208"/> <rect x="196.344" y="390.519" width="172.782" height="15.208"/> <rect x="110.136" y="390.519" width="65.921" height="15.208"/> <rect x="70.291" y="284.256" width="205.854" height="15.208"/> </g> </g> </g> </g>
</svg>